<svg xmlns="http://www.w3.org/2000/svg" id="Layer_2" viewBox="0 0 917.03 316.82"><defs><style>.cls-1{fill:#2229af;}.cls-2{fill:#111047;}.cls-3{fill:#76ad36;}</style></defs><g id="Camada_1"><g><g><g><path class="cls-1" d="M626.61,256.37c0,9.89-9.46,17.49-21.89,17.49h-17.7c-1.03,0-1.61-.45-1.61-1.25v-32.48c0-.8,.58-1.25,1.61-1.25h17.7c12.42,0,21.89,7.6,21.89,17.49Zm-9.91,0c0-6-4.89-9.79-11.97-9.79h-9.01v19.59h9.01c7.08,0,11.97-3.8,11.97-9.79Z"></path><path class="cls-1" d="M681.31,267.42v5.2c0,.8-.58,1.25-1.61,1.25h-23.82c-1.03,0-1.61-.45-1.61-1.25v-32.48c0-.8,.58-1.25,1.61-1.25h23.5c1.03,0,1.61,.45,1.61,1.25v5.2c0,.8-.58,1.25-1.61,1.25h-14.81v5.85h13.2c1.03,0,1.61,.45,1.61,1.25v5c0,.8-.58,1.25-1.61,1.25h-13.2v6.25h15.13c1.03,0,1.61,.45,1.61,1.25Z"></path><path class="cls-1" d="M745.67,273.86h-7.92c-.9,0-1.55-.3-1.8-1.05l-1.69-4.45h-15.8l-1.69,4.45c-.26,.75-.9,1.05-1.8,1.05h-7.92c-1.16,0-1.74-.5-1.35-1.4l13.65-32.53c.26-.7,.96-1.05,1.87-1.05h10.3c.9,0,1.61,.35,1.87,1.05l13.65,32.53c.39,.9-.19,1.4-1.35,1.4Zm-14.27-12.99l-5.04-13.24-5.04,13.24h10.08Z"></path><path class="cls-1" d="M799.09,267.42v5.2c0,.8-.58,1.25-1.61,1.25h-22.53c-1.03,0-1.61-.45-1.61-1.25v-32.48c0-.8,.58-1.25,1.61-1.25h7.08c1.03,0,1.61,.45,1.61,1.25v26.04h13.84c1.03,0,1.61,.45,1.61,1.25Z"></path><path class="cls-1" d="M852.51,267.42v5.2c0,.8-.58,1.25-1.61,1.25h-23.82c-1.03,0-1.61-.45-1.61-1.25v-32.48c0-.8,.58-1.25,1.61-1.25h23.5c1.03,0,1.61,.45,1.61,1.25v5.2c0,.8-.58,1.25-1.61,1.25h-14.81v5.85h13.2c1.03,0,1.61,.45,1.61,1.25v5c0,.8-.58,1.25-1.61,1.25h-13.2v6.25h15.13c1.03,0,1.61,.45,1.61,1.25Z"></path><path class="cls-1" d="M915.65,273.86h-8.24c-.84,0-1.48-.2-2-.75l-10.96-10.74h-3.97v10.24c0,.8-.58,1.25-1.61,1.25h-7.08c-1.03,0-1.61-.45-1.61-1.25v-32.48c0-.8,.58-1.25,1.61-1.25h15.77c8.56,0,15.45,5.35,15.45,11.99,0,4.2-3.21,8.02-7.97,10.02l11.57,11.42c.84,.8,.39,1.55-.96,1.55Zm-25.17-18.49h7.08c2.83,0,5.15-1.95,5.15-4.5s-2.32-4.5-5.15-4.5h-7.08v9Z"></path></g><g><path class="cls-2" d="M382.1,202.42c-3.2,6.4-9.74,10.44-16.89,10.44h-11.93c-15.64,0-28.99-5.53-40.05-16.6-11.06-11.06-16.6-24.41-16.6-40.05s5.53-28.99,16.6-40.05c11.06-11.06,24.41-16.6,40.05-16.6h33.04l-5.53,11.05c-2.4,4.8-7.3,7.83-12.67,7.83h-14.49c-9.9,0-19.51,3.72-26.61,10.63-7.64,7.43-11.48,16.44-11.51,27.03-.02,9.79,3.67,19.14,10.46,26.19,7.49,7.79,16.59,11.68,27.3,11.68h33.04l-4.22,8.44Z"></path><path class="cls-2" d="M522.99,156.21v47.2c0,5.21-4.23,9.44-9.44,9.44h-9.44V113.55c0-5.6,7.27-7.81,10.38-3.14l46.27,69.4,46.27-69.4c3.11-4.66,10.38-2.46,10.38,3.14v99.3h-9.44c-5.21,0-9.44-4.23-9.44-9.44v-47.2l-29.91,44.86c-3.74,5.61-11.97,5.61-15.71,0l-29.91-44.86Z"></path><path class="cls-2" d="M657.67,175.09v26.43c0,6.26-5.07,11.33-11.33,11.33h-7.55V109.01c0-5.21,4.23-9.44,9.44-9.44h37.45c9.4,0,18.59,3.3,25.53,9.64,9.36,8.55,13.49,19.27,12.38,32.15-.61,7.06-3.32,13.82-7.83,19.29-7.93,9.63-17.85,14.44-29.76,14.44h-28.32Zm28.17-56.64h-28.17v37.76h28.17c4.51,0,8.95-1.5,12.35-4.46,4.45-3.89,6.68-8.69,6.68-14.42s-2.23-10.53-6.68-14.42c-3.4-2.97-7.84-4.46-12.35-4.46Z"></path><path class="cls-2" d="M786.52,212.85c-15.64,0-28.99-5.53-40.05-16.6-11.06-11.06-16.6-24.41-16.6-40.05s5.53-28.99,16.6-40.05c11.06-11.06,24.41-16.6,40.05-16.6s28.99,5.53,40.05,16.6c11.06,11.06,16.6,24.41,16.6,40.05s-5.53,28.99-16.6,40.05c-11.06,11.06-24.41,16.6-40.05,16.6Zm0-18.88c10.42,0,19.32-3.69,26.7-11.06s11.06-16.27,11.06-26.7-3.69-19.32-11.06-26.7c-7.38-7.38-16.28-11.06-26.7-11.06s-19.32,3.69-26.7,11.06c-7.38,7.38-11.06,16.28-11.06,26.7s3.69,19.32,11.06,26.7c7.38,7.38,16.27,11.06,26.7,11.06Z"></path><path class="cls-2" d="M435.34,112.58l-48.13,100.28h12.11c5.56,0,10.6-3.25,12.9-8.32l4.79-10.57h.05l8.64-18.88h-.06l18.22-40.12,18.22,40.12h-11.05c-3.69,0-7.05,2.15-8.58,5.51l-6.12,13.37h34.38l6.04,13.34c1.53,3.38,4.89,5.54,8.6,5.54h15.15l-48.13-100.28c-3.43-7.14-13.59-7.14-17.02,0Z"></path><path class="cls-2" d="M911.1,169.56c-2.36-4.38-5.72-8.31-10.07-11.8-4.35-3.49-9.31-6.81-14.86-9.96l-1.18-.66-2.66-1.4-.59-.37c-3.49-1.92-6.55-3.71-9.18-5.38-2.63-1.67-4.56-3.32-5.79-4.94-1.23-1.62-1.84-3.34-1.84-5.16v-.22c0-.34,.02-.66,.07-.96,.39-3.64,2.22-6.45,5.49-8.45,3.27-1.99,6.75-2.99,10.44-2.99h.52c.74,0,1.5,.05,2.29,.15,2.69,.31,2.44,.27,4.17,.91,.36,.13,.79,.36,1.36,.61,1.41,.54,2.94,.85,4.54,.85,3.97,0,7.52-1.83,9.84-4.7,.81-1,1.46-2.12,1.94-3.34l1.9-3.26c-.34-.34-.68-.66-1.03-.97-.32-.28-.64-.55-.96-.8-5.26-4.18-11.87-6.69-19.84-7.52-.55-.07-1.08-.12-1.62-.16-.9-.08-1.79-.13-2.66-.13h-1.25c-4.57,0-8.9,.74-12.98,2.21-5.8,2.02-10.57,5.18-14.31,9.48-3.74,4.3-5.95,9.5-6.64,15.6-.1,.93-.17,1.84-.22,2.73v.44c0,3.1,.52,5.93,1.55,8.48,1.28,3.34,3.12,6.31,5.53,8.89,2.41,2.58,5.13,4.88,8.15,6.9,3.02,2.02,6.08,3.89,9.18,5.61l1.11,.74c1.52,.84,3.02,1.7,4.5,2.58,1.23,.69,2.43,1.4,3.61,2.14,3,1.82,5.69,3.74,8.08,5.75,2.38,2.02,4.19,3.97,5.42,5.86,1.23,1.89,1.84,3.85,1.84,5.86v.22l-.07,.96c-.44,3.89-2.53,6.75-6.27,8.59-3.74,1.84-7.77,2.77-12.1,2.77h-.66c-1.08,0-2.19-.07-3.32-.22-1.16-.13-2.29-.32-3.4-.56-.46-.1-.92-.17-1.38-.22-5.56-.66-11.04,2.01-13.9,6.92l-1.13,1.94-2.47,4.24c.7,.42,1.41,.82,2.14,1.21,5.13,2.69,11.06,4.4,17.77,5.14,1.72,.23,3.37,.34,4.97,.35,.14,0,.28,.01,.42,.01h1.4c4.97,0,9.61-.69,13.94-2.07,6.34-2.02,11.53-5.27,15.56-9.77,4.03-4.5,6.42-10.02,7.15-16.56,.15-1.03,.22-2.04,.22-3.02v-.66c0-4.38-.91-8.33-2.73-11.87Z"></path></g></g><g><g><path class="cls-3" d="M333.94,281.11c-1.42-2.71-4.1-5.01-8.68-7.47-6.78-3.64-16.06-6.89-26.13-9.13-8.43-1.89-17.3-3.19-26.36-3.89l-14.61-1.12,13.99,4.36c.64,.2,1.62,.5,2.81,.86,3.03,.91,4.96,1.45,6.82,1.98l.25,.07c1.32,.37,2.68,.75,4.44,1.27,4.1,1.2,6.16,1.8,7.98,2.49,2.25,.85,3.8,1.58,6.91,3.04,3.41,1.6,4.96,2.34,5.99,3.14,1.16,.9,2.91,2.26,2.87,3.41-.01,.4-.05,1.64-3.71,3.49-3.81,1.93-8.51,3.68-13.6,5.07-14.97,4.11-30.82,6.02-44.35,7.35-31.37,3.09-56.29,4.45-80.8,4.36h-.69c-24.4,.1-49.28-1.27-80.66-4.36-13.53-1.33-29.37-3.24-44.35-7.35-5.08-1.39-9.78-3.15-13.6-5.07-3.66-1.85-3.7-3.08-3.71-3.48-.03-1.15,1.72-2.52,2.88-3.42,1.02-.79,2.57-1.53,5.99-3.14,3.09-1.45,4.65-2.18,6.9-3.04,1.81-.68,3.86-1.29,7.98-2.49,1.76-.52,3.13-.9,4.45-1.27l.23-.07c1.87-.52,3.8-1.06,6.83-1.98,1.19-.36,2.17-.66,2.81-.86l13.97-4.36-14.59,1.12c-9.05,.69-17.98,2.01-26.53,3.93-9.95,2.22-19.17,5.45-25.96,9.09-4.58,2.46-7.26,4.77-8.68,7.47-3.83,7.3,3.59,12.05,6.03,13.61,4.18,2.67,9.53,4.94,16.81,7.15,18.08,5.47,37.61,8.2,52.61,9.98,24.81,2.94,51.4,4.54,81.27,4.91,3.18,.04,6.36,.06,9.64,.07h.25c3.17-.01,6.35-.03,9.53-.07,29.88-.37,56.46-1.98,81.27-4.91,15-1.77,34.53-4.51,52.61-9.98,7.29-2.21,12.63-4.48,16.81-7.15,2.44-1.56,9.86-6.31,6.03-13.61Z"></path><path class="cls-3" d="M59.2,272.44c-.7,1.2-.89,2.4-.58,3.57,.66,2.49,3.41,4.07,4.58,4.75,2.73,1.58,6.22,2.91,10.97,4.21,11.76,3.21,24.46,4.81,34.21,5.85,16.13,1.72,33.41,2.66,52.83,2.88,2.07,.02,4.13,.03,6.26,.04h.16c2.06,0,4.13-.02,6.19-.04,19.42-.22,36.7-1.16,52.83-2.88,9.75-1.04,22.45-2.65,34.21-5.85,4.75-1.3,8.24-2.63,10.96-4.21,1.17-.68,3.91-2.26,4.58-4.75,.31-1.17,.12-2.37-.58-3.57-.95-1.63-2.71-3.01-5.73-4.47-4.42-2.14-10.46-4.05-17.02-5.37-5.49-1.11-11.26-1.88-17.15-2.28l-11.72-.81,11.27,3.17c.42,.12,1.05,.29,1.83,.5,1.93,.52,3.17,.84,4.44,1.16l.1,.03c.88,.22,1.78,.45,2.94,.76,2.57,.68,3.99,1.05,5.18,1.46,1.45,.5,2.46,.92,4.48,1.78,2.2,.93,3.21,1.36,3.86,1.82,.62,.44,1.79,1.25,1.77,1.79-.02,.67-1.25,1.37-2.28,1.84-2.47,1.13-5.51,2.15-8.81,2.96-9.71,2.4-20.01,3.53-28.79,4.31-20.38,1.81-36.56,2.61-52.49,2.55h-.45c-15.84,.05-32.01-.74-52.4-2.55-8.79-.78-19.08-1.9-28.79-4.31-3.29-.81-6.34-1.84-8.8-2.96-1.03-.47-2.26-1.17-2.28-1.84-.02-.54,1.15-1.36,1.77-1.8,.65-.45,1.65-.88,3.87-1.82,2-.85,3.01-1.27,4.46-1.77,1.17-.4,2.51-.75,5.18-1.46,1.19-.31,2.1-.54,3.04-.78,1.27-.32,2.51-.63,4.44-1.16,.78-.21,1.41-.39,1.83-.5l11.25-3.16-11.7,.81c-5.89,.41-11.69,1.18-17.26,2.3-6.48,1.3-12.48,3.2-16.91,5.35-3.02,1.46-4.78,2.84-5.73,4.47Z"></path></g><g><path class="cls-1" d="M58.06,0C15.47,43.46,6.09,92.87,22.37,147.13c17.02,56.73,72.34,90.18,119.58,95.4-13.25-6.65-57.45-40.64-83.82-107.54-27.56-69.93-5.3-121.92-.06-134.99Z"></path><circle class="cls-1" cx="167.1" cy="104.03" r="86.44"></circle></g></g></g></g></svg>